<?xml version="1.0" encoding="UTF-8" standalone="no"?>
<svg
   version="1.1"
   id="Layer_1"
   x="0px"
   y="0px"
   viewBox="0 0 170 38"
   style="enable-background:new 0 0 170 38;"
   xml:space="preserve"
   width="512"
   height="512"
   sodipodi:docname="logo_trang.svg"
   inkscape:version="1.3.2 (091e20e, 2023-11-25, custom)"
   xmlns:inkscape="http://www.inkscape.org/namespaces/inkscape"
   xmlns:sodipodi="http://sodipodi.sourceforge.net/DTD/sodipodi-0.dtd"
   xmlns="http://www.w3.org/2000/svg"
   xmlns:svg="http://www.w3.org/2000/svg"><defs
   id="defs4" /><sodipodi:namedview
   id="namedview4"
   pagecolor="#ffffff"
   bordercolor="#000000"
   borderopacity="0.25"
   inkscape:showpageshadow="2"
   inkscape:pageopacity="0.0"
   inkscape:pagecheckerboard="0"
   inkscape:deskcolor="#d1d1d1"
   inkscape:zoom="2.8007812"
   inkscape:cx="255.82148"
   inkscape:cy="256"
   inkscape:window-width="3200"
   inkscape:window-height="1706"
   inkscape:window-x="-9"
   inkscape:window-y="-9"
   inkscape:window-maximized="1"
   inkscape:current-layer="Layer_1" />
<g
   id="g4">
	<path
   d="M63,14.8L70.3,37h23.4l7.2-22.2L82,1L63,14.8z M78.5,8.1l-1.8,5.5h-5.8L78.5,8.1z M75.5,17.3L74.6,20l-3.7-2.7H75.5z    M71.6,29.2l-2.9-8.9l4.7,3.4L71.6,29.2z M74.2,33.3l2.4-7.3l10.1,7.3H74.2z M91.4,32.2l-13.6-9.9l1.6-5h16.8L91.4,32.2z M93,13.6   H80.6l2.4-7.3L93,13.6z"
   id="path1" />
	<polygon
   points="47.2,24.5 55.5,24.5 55.5,20.7 47.2,20.7 47.2,16.3 56.9,16.3 56.9,12.3 42.8,12.3 42.8,33.3 57.2,33.3 57.2,29.3    47.2,29.3  "
   id="polygon1" />
	<polygon
   points="33.2,20.8 24.4,20.8 24.4,12.3 19.9,12.3 19.9,33.3 24.4,33.3 24.4,24.9 33.2,24.9 33.2,33.3 37.7,33.3 37.7,12.3    33.2,12.3  "
   id="polygon2" />
	<polygon
   points="0,16.4 6.1,16.4 6.1,33.3 10.6,33.3 10.6,16.4 16.9,16.4 16.9,12.3 0,12.3  "
   id="polygon3" />
	<path
   d="M165.4,12.3L159,22.6l-6.3-10.3h-4.1v21h4.4v-7.2c0-1.9,0-3.6-0.1-5c0-0.4-0.1-0.9-0.1-1.3l5.2,8.1h2l5.3-8.2   c0,0.5-0.1,1-0.1,1.5c-0.1,1.4-0.1,3.1-0.1,4.9v7.2h4.4v-21H165.4z"
   id="path3" />
	<polygon
   points="134.3,24.5 142.6,24.5 142.6,20.7 134.3,20.7 134.3,16.3 144.1,16.3 144.1,12.3 129.9,12.3 129.9,33.3 144.3,33.3    144.3,29.3 134.3,29.3  "
   id="polygon4" />
	<path
   d="M126,22.7c0-0.3-0.1-0.6-0.1-0.8h-9.7v3.8h5.4c0,0.5-0.1,1-0.4,1.5c-0.3,0.5-0.6,0.9-1,1.3c-0.5,0.4-1,0.7-1.6,0.9   c-0.6,0.2-1.2,0.3-1.9,0.3c-0.9,0-1.8-0.2-2.6-0.5c-0.8-0.3-1.5-0.8-2.1-1.4c-0.6-0.6-1.1-1.3-1.4-2.2c-0.4-0.8-0.5-1.7-0.5-2.7   c0-1,0.2-1.8,0.5-2.7c0.3-0.8,0.8-1.5,1.4-2.1c0.6-0.6,1.3-1.1,2.1-1.4c0.8-0.3,1.7-0.5,2.6-0.5c0.7,0,1.3,0.1,1.9,0.3   c0.6,0.2,1.2,0.5,1.8,0.8c0.6,0.4,1.1,0.8,1.6,1.3l2.8-2.9c-0.6-0.7-1.3-1.3-2.1-1.8c-0.8-0.5-1.8-0.9-2.8-1.2   c-1-0.3-2.1-0.5-3.2-0.5c-1.6,0-3.1,0.3-4.5,0.8c-1.4,0.5-2.5,1.3-3.6,2.3c-1,1-1.8,2.1-2.3,3.4c-0.6,1.3-0.8,2.7-0.8,4.3   c0,1.5,0.3,3,0.8,4.3c0.5,1.3,1.3,2.5,2.3,3.4c1,1,2.1,1.7,3.5,2.3c1.4,0.5,2.8,0.8,4.5,0.8c1.4,0,2.7-0.2,3.8-0.7   c1.2-0.4,2.2-1.1,3.1-1.9c0.9-0.8,1.5-1.8,2-2.9c0.5-1.1,0.7-2.4,0.7-3.8c0-0.2,0-0.4,0-0.7C126.1,23.3,126.1,23,126,22.7z"
   id="path4" />
</g>
<path
   style="fill:#ffffff;fill-rule:evenodd;stroke:#000000;stroke-width:0.255047"
   d="m 211.79551,309.64575 c -0.40858,-0.72078 -21.69115,-65.8954 -21.59857,-66.14231 0.0589,-0.15709 12.85617,-9.54417 28.43835,-20.86018 l 28.33125,-20.57456 11.47907,8.3702 c 32.22744,23.49931 45.03746,32.96958 45.00197,33.26932 -0.0215,0.18196 -4.83491,15.15259 -10.69635,33.26807 l -10.65717,32.93724 h -35.07338 c -19.29036,0 -35.14168,-0.1205 -35.22517,-0.26778 z m 48.83613,-11.10664 c -0.96898,-0.9125 -28.94094,-21.08207 -29.57475,-21.32529 -0.39276,-0.15071 -1.34075,2.29591 -4.11827,10.62863 -1.98444,5.95342 -3.60808,10.94487 -3.60808,11.09209 0,0.14723 8.55119,0.26769 19.00264,0.26769 18.53056,0 18.98514,-0.0165 18.29846,-0.66312 z m 22.1021,-25.23974 c 3.85376,-11.98827 7.00685,-21.99101 7.00685,-22.22832 0,-0.33406 -5.73529,-0.41077 -25.40793,-0.33982 l -25.40793,0.0916 -2.39962,7.49791 c -1.79957,5.62297 -2.29847,7.60344 -1.99514,7.91992 0.22246,0.23211 9.47411,7.02363 20.5592,15.09227 13.7804,10.03051 20.2311,14.52684 20.39622,14.21676 0.13282,-0.24942 3.39458,-10.26208 7.24835,-22.25036 z m -64.09825,4.96371 c 1.40404,-4.3489 2.55279,-7.99148 2.55279,-8.09464 0,-0.354 -13.96099,-10.32367 -14.16751,-10.11715 -0.17275,0.17275 7.85177,25.51341 8.3656,26.41776 0.33564,0.59074 0.73354,-0.4142 3.24912,-8.20597 z m 7.55941,-23.15569 c 0.64239,-1.96374 1.24191,-3.77127 1.33227,-4.01673 0.12803,-0.3478 -1.43723,-0.44631 -7.09128,-0.44631 -6.28392,0 -7.18556,0.0681 -6.73276,0.50841 1.37953,1.34153 10.88404,8.01467 11.08948,7.78595 0.12887,-0.14349 0.7599,-1.86758 1.40229,-3.83132 z m 7.66721,-23.42922 c 1.49175,-4.54018 2.63227,-8.33488 2.53448,-8.43267 -0.15277,-0.15278 -20.34385,14.2425 -22.4788,16.02631 -0.73646,0.61533 -0.45028,0.6379 8.23453,0.64937 l 8.99751,0.0119 z m 46.22785,7.9871 c -0.008,-0.21482 -28.28708,-21.04098 -29.78853,-21.9381 -0.28526,-0.17044 -1.54955,3.17772 -4.05258,10.73222 -2.00088,6.03897 -3.63797,11.09103 -3.63797,11.2268 0,0.13578 8.43515,0.24686 18.74477,0.24686 10.30962,0 18.74006,-0.1205 18.73431,-0.26778 z"
   id="path5"
   transform="matrix(0.33203125,0,0,0.33203125,0,-66)" /><path
   style="fill:#ffffff;fill-rule:evenodd;stroke:#000000;stroke-width:0.255047"
   d="m 344.73535,299.86612 c -7.02659,-1.16445 -13.13491,-4.37957 -18.21931,-9.58974 -3.8905,-3.98674 -5.85033,-7.56731 -7.57446,-13.83845 -1.0357,-3.76716 -1.11854,-13.32927 -0.14612,-16.8675 1.27005,-4.62118 4.09607,-9.81397 7.1727,-13.17978 5.41777,-5.92697 12.588,-9.38066 21.72269,-10.46315 8.71862,-1.03319 19.40164,2.26736 25.64802,7.92403 l 2.25382,2.04104 -4.05483,4.32665 -4.05482,4.32665 -1.82799,-1.61173 c -2.19445,-1.93483 -6.67254,-4.2104 -9.86147,-5.01117 -2.98571,-0.74973 -7.83967,-0.50257 -11.06834,0.56359 -4.67531,1.54388 -9.34745,5.62942 -11.31366,9.89321 -1.78673,3.87459 -2.46074,11.02774 -1.40743,14.93683 1.34577,4.99449 4.47808,9.42078 8.48732,11.99351 4.32772,2.77709 11.85482,3.83951 16.37324,2.31102 4.97428,-1.68269 8.71302,-5.68216 9.45025,-10.10928 l 0.25269,-1.51743 h -8.24338 -8.24338 v -5.53417 -5.53417 h 14.43188 14.43189 l 0.19517,0.98187 c 1.08337,5.45016 0.96545,10.70116 -0.33878,15.08508 -2.82669,9.50142 -10.81263,16.56902 -21.21352,18.77406 -2.59235,0.54959 -9.79834,0.60512 -12.85218,0.099 z"
   id="path6"
   transform="matrix(0.33203125,0,0,0.33203125,0,-66)" /><path
   style="fill:#ffffff;fill-rule:evenodd;stroke:#000000;stroke-width:0.255047"
   d="m 391.49791,267.42538 v -31.4198 h 21.24407 21.24407 v 5.89121 5.89122 h -14.81729 -14.8173 v 6.78382 6.78382 h 12.49652 12.49651 v 5.53417 5.53417 h -12.49651 -12.49652 v 7.31939 7.31938 h 14.99582 14.99582 v 5.89121 5.89122 h -21.4226 -21.42259 z"
   id="path7"
   transform="matrix(0.33203125,0,0,0.33203125,0,-66)" /><path
   style="fill:#ffffff;fill-rule:evenodd;stroke:#000000;stroke-width:0.255047"
   d="m 447.5537,267.41695 v -31.42823 l 6.15178,0.0977 6.15179,0.0977 9.34824,15.28278 c 5.14153,8.40552 9.47043,15.31431 9.61976,15.35286 0.14934,0.0385 4.56695,-6.83871 9.81693,-15.28278 l 9.5454,-15.35286 6.10285,-0.0977 6.10286,-0.0977 v 31.42823 31.42824 h -6.46111 -6.46111 l 0.12359,-20.31747 c 0.068,-11.1746 0.0433,-20.26603 -0.0549,-20.20318 -0.0982,0.0629 -3.71325,5.59398 -8.03347,12.29137 l -7.85496,12.17707 -2.82833,-0.0966 -2.82833,-0.0966 -7.85299,-12.22895 c -4.31914,-6.72593 -7.90141,-12.18054 -7.96059,-12.12135 -0.0592,0.0592 0.0433,3.07183 0.22764,6.69478 0.18439,3.62295 0.33983,12.73279 0.34542,20.24408 l 0.0102,13.65691 h -6.6053 -6.6053 z"
   id="path8"
   transform="matrix(0.33203125,0,0,0.33203125,0,-66)" /><path
   style="fill:#ffffff;fill-rule:evenodd;stroke:#000000;stroke-width:0.255047"
   d="m 129.07113,267.42538 v -31.4198 h 21.06555 21.06555 v 5.89121 5.89122 h -14.63877 -14.63877 v 6.78382 6.78382 h 12.49651 12.49651 v 5.53417 5.53417 H 154.4212 141.92469 v 7.31939 7.31938 h 15.17433 15.17434 v 5.89121 5.89122 h -21.60111 -21.60112 z"
   id="path9"
   transform="matrix(0.33203125,0,0,0.33203125,0,-66)" /><path
   style="fill:#ffffff;fill-rule:evenodd;stroke:#000000;stroke-width:0.255047"
   d="m 60.161785,267.42538 v -31.4198 h 6.6053 6.6053 v 12.85356 12.85355 h 13.389121 13.389124 v -12.85355 -12.85356 h 6.6053 6.6053 v 31.4198 31.41981 h -6.6053 -6.6053 V 286.17015 273.49512 H 86.761506 73.372385 v 12.67503 12.67504 h -6.6053 -6.6053 z"
   id="path10"
   transform="matrix(0.33203125,0,0,0.33203125,0,-66)" /><path
   style="fill:#ffffff;fill-rule:evenodd;stroke:#000000;stroke-width:0.255047"
   d="M 18.387727,273.49512 V 248.14505 H 9.2831241 0.17852162 v -6.06974 -6.06973 H 25.528591 50.878661 v 6.06973 6.06974 h -9.640167 -9.640168 v 25.35007 25.35007 h -6.6053 -6.605299 z"
   id="path11"
   transform="matrix(0.33203125,0,0,0.33203125,0,-66)" /></svg>
